<svg width="172" height="14" viewBox="0 0 172 14" fill="none" xmlns="http://www.w3.org/2000/svg">
<path d="M0.64 13.0902L2.08 12.5502L7.03 0.580229H7.57L12.7 12.8202L13.6 13.0902V13.3602H11.44C10.816 13.3602 10.306 13.2222 9.91 12.9462C9.514 12.6582 9.22 12.2862 9.028 11.8302L8.11 9.67023H3.808L2.62 12.5502L3.97 13.0902V13.3602H0.64V13.0902ZM3.988 9.22023H7.93L5.95 4.48623L3.988 9.22023ZM14.1344 13.0902L15.2144 12.8202V1.30023L14.1344 1.03023V0.760229H19.1744C21.1664 0.760229 22.5944 1.09023 23.4584 1.75023C24.3224 2.39823 24.7544 3.35823 24.7544 4.63023C24.7544 5.90223 24.3224 6.86823 23.4584 7.52823C22.5944 8.17623 21.1664 8.50023 19.1744 8.50023H18.1844V12.8202L19.2644 13.0902V13.3602H14.1344V13.0902ZM19.1744 8.05023C19.9304 8.05023 20.5364 7.76223 20.9924 7.18623C21.4604 6.61023 21.6944 5.75823 21.6944 4.63023C21.6944 3.51423 21.4604 2.66823 20.9924 2.09223C20.5364 1.50423 19.9304 1.21023 19.1744 1.21023H18.1844V8.05023H19.1744ZM23.7552 13.0902L25.1952 12.5502L30.1452 0.580229H30.6852L35.8152 12.8202L36.7152 13.0902V13.3602H34.5552C33.9312 13.3602 33.4212 13.2222 33.0252 12.9462C32.6292 12.6582 32.3352 12.2862 32.1432 11.8302L31.2252 9.67023H26.9232L25.7352 12.5502L27.0852 13.0902V13.3602H23.7552V13.0902ZM27.1032 9.22023H31.0452L29.0652 4.48623L27.1032 9.22023ZM37.2496 13.0902L38.3296 12.8202V1.30023L37.2496 1.03023V0.760229H42.0196C44.0596 0.760229 45.5296 1.07223 46.4296 1.69623C47.3296 2.30823 47.7796 3.16623 47.7796 4.27023C47.7796 5.01423 47.5816 5.62023 47.1856 6.08823C46.7896 6.54423 46.2796 6.88623 45.6556 7.11423C44.9956 7.36623 44.2936 7.49823 43.5496 7.51023V7.60023C43.9936 7.62423 44.3836 7.69023 44.7196 7.79823C45.5596 8.06223 46.1296 8.53623 46.4296 9.22023L48.0496 12.8202L48.9496 13.0902V13.3602H46.4296C45.4456 13.3602 44.7256 12.8502 44.2696 11.8302L42.4696 7.78023H41.2996V12.8202L42.5596 13.0902V13.3602H37.2496V13.0902ZM42.0196 7.33023C42.8596 7.33023 43.5196 7.06623 43.9996 6.53823C44.4796 6.01023 44.7196 5.25423 44.7196 4.27023C44.7196 3.28623 44.4796 2.53023 43.9996 2.00223C43.5196 1.47423 42.8596 1.21023 42.0196 1.21023H41.2996V7.33023H42.0196ZM51.9273 13.0902L53.0073 12.8202V1.21023H50.9373C50.9373 1.94223 50.7393 2.64423 50.3433 3.31623C50.1753 3.59223 49.9833 3.82023 49.7673 4.00023H49.2273V0.760229H59.7573V4.00023H59.2173C58.9893 3.82023 58.7913 3.59223 58.6233 3.31623C58.2393 2.66823 58.0473 1.96623 58.0473 1.21023H55.9773V12.8202L57.0573 13.0902V13.3602H51.9273V13.0902ZM62.7231 3.01023V12.5502L64.1631 13.0902V13.3602H60.7431V13.0902L62.1831 12.5502V1.30023L61.1031 1.03023V0.760229H63.3531C63.9771 0.760229 64.4691 0.892229 64.8291 1.15623C65.2011 1.40823 65.5191 1.78623 65.7831 2.29023L69.7071 9.79623L72.7131 2.29023C72.9171 1.76223 73.1931 1.37823 73.5411 1.13823C73.8891 0.886229 74.4231 0.760229 75.1431 0.760229H77.0331V1.03023L75.9531 1.30023V12.8202L77.0331 13.0902V13.3602H71.9031V13.0902L72.9831 12.8202V3.01023L68.7531 13.5402H68.2131L62.7231 3.01023ZM78.6637 13.0902L79.7437 12.8202V1.30023L78.6637 1.03023V0.760229H88.2937V4.00023H87.7537C87.5257 3.82023 87.3277 3.59223 87.1597 3.31623C86.7757 2.66823 86.5837 1.96623 86.5837 1.21023H82.7137V6.88023H84.7837C84.8677 6.42423 85.0237 5.99823 85.2517 5.60223C85.3477 5.42223 85.4617 5.24823 85.5937 5.08023H86.1337V9.13023H85.5937C85.4617 8.96223 85.3477 8.78823 85.2517 8.60823C85.0237 8.21223 84.8677 7.78623 84.7837 7.33023H82.7137V12.9102H86.9437C86.9437 12.1542 87.1357 11.4522 87.5197 10.8042C87.6877 10.5282 87.8857 10.3002 88.1137 10.1202H88.6537V13.3602H78.6637V13.0902ZM91.8852 3.82023V12.5502L93.3252 13.0902V13.3602H89.9052V13.0902L91.3452 12.5502V1.39023L90.0852 1.03023V0.760229H91.9752C92.6112 0.760229 93.1092 0.874229 93.4692 1.10223C93.8292 1.33023 94.1712 1.63623 94.4952 2.02023L100.255 8.77023V1.57023L98.8152 1.03023V0.760229H102.235V1.03023L100.795 1.57023V13.6302H100.255L91.8852 3.82023ZM105.839 13.0902L106.919 12.8202V1.21023H104.849C104.849 1.94223 104.651 2.64423 104.255 3.31623C104.087 3.59223 103.895 3.82023 103.679 4.00023H103.139V0.760229H113.669V4.00023H113.129C112.901 3.82023 112.703 3.59223 112.535 3.31623C112.151 2.66823 111.959 1.96623 111.959 1.21023H109.889V12.8202L110.969 13.0902V13.3602H105.839V13.0902ZM118.8 13.0902L120.24 12.5502L125.19 0.580229H125.73L130.86 12.8202L131.76 13.0902V13.3602H129.6C128.976 13.3602 128.466 13.2222 128.07 12.9462C127.674 12.6582 127.38 12.2862 127.188 11.8302L126.27 9.67023H121.968L120.78 12.5502L122.13 13.0902V13.3602H118.8V13.0902ZM122.148 9.22023H126.09L124.11 4.48623L122.148 9.22023ZM132.295 13.0902L133.375 12.8202V1.30023L132.295 1.03023V0.760229H137.065C139.105 0.760229 140.575 1.07223 141.475 1.69623C142.375 2.30823 142.825 3.16623 142.825 4.27023C142.825 5.01423 142.627 5.62023 142.231 6.08823C141.835 6.54423 141.325 6.88623 140.701 7.11423C140.041 7.36623 139.339 7.49823 138.595 7.51023V7.60023C139.039 7.62423 139.429 7.69023 139.765 7.79823C140.605 8.06223 141.175 8.53623 141.475 9.22023L143.095 12.8202L143.995 13.0902V13.3602H141.475C140.491 13.3602 139.771 12.8502 139.315 11.8302L137.515 7.78023H136.345V12.8202L137.605 13.0902V13.3602H132.295V13.0902ZM137.065 7.33023C137.905 7.33023 138.565 7.06623 139.045 6.53823C139.525 6.01023 139.765 5.25423 139.765 4.27023C139.765 3.28623 139.525 2.53023 139.045 2.00223C138.565 1.47423 137.905 1.21023 137.065 1.21023H136.345V7.33023H137.065ZM144.898 13.0902L145.978 12.8202V1.30023L144.898 1.03023V0.760229H154.528V4.00023H153.988C153.76 3.82023 153.562 3.59223 153.394 3.31623C153.01 2.66823 152.818 1.96623 152.818 1.21023H148.948V6.88023H151.018C151.102 6.42423 151.258 5.99823 151.486 5.60223C151.582 5.42223 151.696 5.24823 151.828 5.08023H152.368V9.13023H151.828C151.696 8.96223 151.582 8.78823 151.486 8.60823C151.258 8.21223 151.102 7.78623 151.018 7.33023H148.948V12.9102H153.178C153.178 12.1542 153.37 11.4522 153.754 10.8042C153.922 10.5282 154.12 10.3002 154.348 10.1202H154.888V13.3602H144.898V13.0902ZM155.24 13.0902L156.68 12.5502L161.63 0.580229H162.17L167.3 12.8202L168.2 13.0902V13.3602H166.04C165.416 13.3602 164.906 13.2222 164.51 12.9462C164.114 12.6582 163.82 12.2862 163.628 11.8302L162.71 9.67023H158.408L157.22 12.5502L158.57 13.0902V13.3602H155.24V13.0902ZM158.588 9.22023H162.53L160.55 4.48623L158.588 9.22023ZM169.994 6.88023C169.634 6.88023 169.316 6.74823 169.04 6.48423C168.776 6.20823 168.644 5.89023 168.644 5.53023C168.644 5.17023 168.776 4.85823 169.04 4.59423C169.316 4.31823 169.634 4.18023 169.994 4.18023C170.354 4.18023 170.666 4.31823 170.93 4.59423C171.206 4.85823 171.344 5.17023 171.344 5.53023C171.344 5.89023 171.206 6.20823 170.93 6.48423C170.666 6.74823 170.354 6.88023 169.994 6.88023ZM169.994 13.5402C169.634 13.5402 169.316 13.4082 169.04 13.1442C168.776 12.8682 168.644 12.5502 168.644 12.1902C168.644 11.8302 168.776 11.5182 169.04 11.2542C169.316 10.9782 169.634 10.8402 169.994 10.8402C170.354 10.8402 170.666 10.9782 170.93 11.2542C171.206 11.5182 171.344 11.8302 171.344 12.1902C171.344 12.5502 171.206 12.8682 170.93 13.1442C170.666 13.4082 170.354 13.5402 169.994 13.5402Z" fill="#E3B873"/>
</svg>
