<svg width="46" height="14" viewBox="0 0 46 14" fill="none" xmlns="http://www.w3.org/2000/svg">
<path d="M6.93 13.6302C5.01 13.6302 3.51 13.0602 2.43 11.9202C1.35 10.7802 0.81 9.16023 0.81 7.06023C0.81 5.68023 1.044 4.49823 1.512 3.51423C1.992 2.51823 2.658 1.76823 3.51 1.26423C4.374 0.748229 5.37 0.490229 6.498 0.490229C7.182 0.490229 7.872 0.688229 8.568 1.08423C8.832 1.22823 9.096 1.42023 9.36 1.66023C9.564 1.34823 9.774 1.10223 9.99 0.922229C10.206 0.766229 10.326 0.682229 10.35 0.670229H10.8V4.09023H10.08C9.924 3.51423 9.69 2.99223 9.378 2.52423C9.09 2.06823 8.73 1.69023 8.298 1.39023C7.878 1.09023 7.392 0.940228 6.84 0.940228C6.012 0.940228 5.322 1.42023 4.77 2.38023C4.23 3.34023 3.96 4.90023 3.96 7.06023C3.96 9.25623 4.254 10.8282 4.842 11.7762C5.442 12.7122 6.258 13.1802 7.29 13.1802C7.854 13.1802 8.388 13.0242 8.892 12.7122C9.408 12.3882 9.822 11.9622 10.134 11.4342C10.458 10.9062 10.62 10.3482 10.62 9.76023H11.07C11.07 10.4442 10.884 11.0862 10.512 11.6862C10.152 12.2742 9.654 12.7482 9.018 13.1082C8.394 13.4562 7.698 13.6302 6.93 13.6302ZM12.607 13.3602V13.0902L13.687 12.8202V1.30023L12.607 1.03023V0.760229H17.737V1.03023L16.657 1.30023V12.8202L17.737 13.0902V13.3602H12.607ZM21.7828 13.0902L22.8628 12.8202V1.21023H20.7928C20.7928 1.94223 20.5948 2.64423 20.1988 3.31623C20.0308 3.59223 19.8388 3.82023 19.6228 4.00023H19.0828V0.760229H29.6128V4.00023H29.0728C28.8448 3.82023 28.6468 3.59223 28.4788 3.31623C28.0948 2.66823 27.9028 1.96623 27.9028 1.21023H25.8328V12.8202L26.9128 13.0902V13.3602H21.7828V13.0902ZM33.5686 13.0902L34.6486 12.8202V8.68023L30.9586 1.30023L30.0586 1.03023V0.760229H32.3086C32.9326 0.760229 33.4306 0.892229 33.8026 1.15623C34.1866 1.42023 34.4986 1.79823 34.7386 2.29023L37.4026 7.60023L40.1386 1.57023L38.7886 1.03023V0.760229H42.2086V1.03023L40.7686 1.57023L37.6186 8.50023V12.8202L38.6986 13.0902V13.3602H33.5686V13.0902ZM44.1893 6.88023C43.8293 6.88023 43.5113 6.74823 43.2353 6.48423C42.9713 6.20823 42.8393 5.89023 42.8393 5.53023C42.8393 5.17023 42.9713 4.85823 43.2353 4.59423C43.5113 4.31823 43.8293 4.18023 44.1893 4.18023C44.5493 4.18023 44.8613 4.31823 45.1253 4.59423C45.4013 4.85823 45.5393 5.17023 45.5393 5.53023C45.5393 5.89023 45.4013 6.20823 45.1253 6.48423C44.8613 6.74823 44.5493 6.88023 44.1893 6.88023ZM44.1893 13.5402C43.8293 13.5402 43.5113 13.4082 43.2353 13.1442C42.9713 12.8682 42.8393 12.5502 42.8393 12.1902C42.8393 11.8302 42.9713 11.5182 43.2353 11.2542C43.5113 10.9782 43.8293 10.8402 44.1893 10.8402C44.5493 10.8402 44.8613 10.9782 45.1253 11.2542C45.4013 11.5182 45.5393 11.8302 45.5393 12.1902C45.5393 12.5502 45.4013 12.8682 45.1253 13.1442C44.8613 13.4082 44.5493 13.5402 44.1893 13.5402Z" fill="#E3B873"/>
</svg>
