<svg width="153" height="57" viewBox="0 0 153 57" fill="none" xmlns="http://www.w3.org/2000/svg">
<path d="M9.395 19.7652C6.515 19.7652 4.265 18.9102 2.645 17.2002C1.025 15.4902 0.215 13.0602 0.215 9.91023C0.215 7.84023 0.566 6.06723 1.268 4.59123C1.988 3.09723 2.987 1.97223 4.265 1.21623C5.561 0.442228 7.055 0.0552286 8.747 0.0552286C9.773 0.0552286 10.808 0.352229 11.852 0.946228C12.248 1.16223 12.644 1.45023 13.04 1.81023C13.346 1.34223 13.661 0.973228 13.985 0.703228C14.309 0.469228 14.489 0.343228 14.525 0.325228H15.2V5.45523H14.12C13.886 4.59123 13.535 3.80823 13.067 3.10623C12.635 2.42223 12.095 1.85523 11.447 1.40523C10.817 0.955228 10.088 0.730228 9.26 0.730228C8.018 0.730228 6.983 1.45023 6.155 2.89023C5.345 4.33023 4.94 6.67023 4.94 9.91023C4.94 13.2042 5.381 15.5622 6.263 16.9842C7.163 18.3882 8.387 19.0902 9.935 19.0902C10.781 19.0902 11.582 18.8562 12.338 18.3882C13.112 17.9022 13.733 17.2632 14.201 16.4712C14.687 15.6792 14.93 14.8422 14.93 13.9602H15.605C15.605 14.9862 15.326 15.9492 14.768 16.8492C14.228 17.7312 13.481 18.4422 12.527 18.9822C11.591 19.5042 10.547 19.7652 9.395 19.7652ZM24.1332 19.7652C22.3692 19.7652 20.8212 19.3872 19.4892 18.6312C18.1752 17.8572 17.1582 16.7322 16.4382 15.2562C15.7182 13.7802 15.3582 11.9982 15.3582 9.91023C15.3582 7.82223 15.7182 6.04023 16.4382 4.56423C17.1582 3.08823 18.1752 1.97223 19.4892 1.21623C20.8212 0.442228 22.3692 0.0552286 24.1332 0.0552286C25.8972 0.0552286 27.4362 0.442228 28.7502 1.21623C30.0822 1.97223 31.1082 3.08823 31.8282 4.56423C32.5482 6.04023 32.9082 7.82223 32.9082 9.91023C32.9082 11.9982 32.5482 13.7802 31.8282 15.2562C31.1082 16.7322 30.0822 17.8572 28.7502 18.6312C27.4362 19.3872 25.8972 19.7652 24.1332 19.7652ZM24.1332 19.2252C24.8352 19.2252 25.4832 18.9282 26.0772 18.3342C26.6892 17.7402 27.1932 16.7502 27.5892 15.3642C27.9852 13.9782 28.1832 12.1602 28.1832 9.91023C28.1832 7.66023 27.9852 5.84223 27.5892 4.45623C27.1932 3.07023 26.6892 2.08023 26.0772 1.48623C25.4832 0.892228 24.8352 0.595228 24.1332 0.595228C23.4312 0.595228 22.7742 0.892228 22.1622 1.48623C21.5682 2.08023 21.0732 3.07023 20.6772 4.45623C20.2812 5.84223 20.0832 7.66023 20.0832 9.91023C20.0832 12.1602 20.2812 13.9782 20.6772 15.3642C21.0732 16.7502 21.5682 17.7402 22.1622 18.3342C22.7742 18.9282 23.4312 19.2252 24.1332 19.2252ZM36.0195 3.83523V18.1452L38.1795 18.9552V19.3602H33.0495V18.9552L35.2095 18.1452V1.27023L33.5895 0.865228V0.460228H36.9645C37.9005 0.460228 38.6385 0.658228 39.1785 1.05423C39.7365 1.43223 40.2135 1.99923 40.6095 2.75523L46.4955 14.0142L51.0045 2.75523C51.3105 1.96323 51.7245 1.38723 52.2465 1.02723C52.7685 0.649228 53.5695 0.460228 54.6495 0.460228H57.4845V0.865228L55.8645 1.27023V18.5502L57.4845 18.9552V19.3602H49.7895V18.9552L51.4095 18.5502V3.83523L45.0645 19.6302H44.2545L36.0195 3.83523ZM58.0404 18.9552L59.6604 18.5502V1.27023L58.0404 0.865228V0.460228H65.6004C68.5884 0.460228 70.7304 0.955228 72.0264 1.94523C73.3224 2.91723 73.9704 4.35723 73.9704 6.26523C73.9704 8.17323 73.3224 9.62223 72.0264 10.6122C70.7304 11.5842 68.5884 12.0702 65.6004 12.0702H64.1154V18.5502L65.7354 18.9552V19.3602H58.0404V18.9552ZM65.6004 11.3952C66.7344 11.3952 67.6434 10.9632 68.3274 10.0992C69.0294 9.23523 69.3804 7.95723 69.3804 6.26523C69.3804 4.59123 69.0294 3.32223 68.3274 2.45823C67.6434 1.57623 66.7344 1.13523 65.6004 1.13523H64.1154V11.3952H65.6004ZM74.3701 18.9552L75.9901 18.5502V1.27023L74.3701 0.865228V0.460228H82.0651V0.865228L80.4451 1.27023V18.6852H86.2501C86.2501 17.5512 86.5381 16.4982 87.1141 15.5262C87.3661 15.1122 87.6631 14.7702 88.0051 14.5002H88.8151V19.3602H74.3701V18.9552ZM88.9596 18.9552L90.5796 18.5502V1.27023L88.9596 0.865228V0.460228H103.405V5.32023H102.595C102.253 5.05023 101.956 4.70823 101.704 4.29423C101.128 3.32223 100.84 2.26923 100.84 1.13523H95.0346V9.64023H98.1396C98.2656 8.95623 98.4996 8.31723 98.8416 7.72323C98.9856 7.45323 99.1566 7.19223 99.3546 6.94023H100.165V13.0152H99.3546C99.1566 12.7632 98.9856 12.5022 98.8416 12.2322C98.4996 11.6382 98.2656 10.9992 98.1396 10.3152H95.0346V18.6852H101.38C101.38 17.5512 101.668 16.4982 102.244 15.5262C102.496 15.1122 102.793 14.7702 103.135 14.5002H103.945V19.3602H88.9596V18.9552ZM107.847 18.9552L109.467 18.5502V1.13523H106.362C106.362 2.23323 106.065 3.28623 105.471 4.29423C105.219 4.70823 104.931 5.05023 104.607 5.32023H103.797V0.460228H119.592V5.32023H118.782C118.44 5.05023 118.143 4.70823 117.891 4.29423C117.315 3.32223 117.027 2.26923 117.027 1.13523H113.922V18.5502L115.542 18.9552V19.3602H107.847V18.9552ZM119.721 18.9552L121.341 18.5502V1.27023L119.721 0.865228V0.460228H134.166V5.32023H133.356C133.014 5.05023 132.717 4.70823 132.465 4.29423C131.889 3.32223 131.601 2.26923 131.601 1.13523H125.796V9.64023H128.901C129.027 8.95623 129.261 8.31723 129.603 7.72323C129.747 7.45323 129.918 7.19223 130.116 6.94023H130.926V13.0152H130.116C129.918 12.7632 129.747 12.5022 129.603 12.2322C129.261 11.6382 129.027 10.9992 128.901 10.3152H125.796V18.6852H132.141C132.141 17.5512 132.429 16.4982 133.005 15.5262C133.257 15.1122 133.554 14.7702 133.896 14.5002H134.706V19.3602H119.721V18.9552ZM135.233 18.9552L136.853 18.5502V1.27023L135.233 0.865228V0.460228H142.118C145.34 0.460228 147.806 1.28823 149.516 2.94423C151.244 4.60023 152.108 6.92223 152.108 9.91023C152.108 12.8982 151.244 15.2202 149.516 16.8762C147.806 18.5322 145.34 19.3602 142.118 19.3602H135.233V18.9552ZM142.118 18.6852C143.792 18.6852 145.088 18.0102 146.006 16.6602C146.924 15.2922 147.383 13.0422 147.383 9.91023C147.383 6.77823 146.924 4.53723 146.006 3.18723C145.088 1.81923 143.792 1.13523 142.118 1.13523H141.308V18.6852H142.118ZM0.35 55.9552L1.97 55.5502V38.2702L0.35 37.8652V37.4602H7.91C10.898 37.4602 13.04 37.9552 14.336 38.9452C15.632 39.9172 16.28 41.3572 16.28 43.2652C16.28 45.1732 15.632 46.6222 14.336 47.6122C13.04 48.5842 10.898 49.0702 7.91 49.0702H6.425V55.5502L8.045 55.9552V56.3602H0.35V55.9552ZM7.91 48.3952C9.044 48.3952 9.953 47.9632 10.637 47.0992C11.339 46.2352 11.69 44.9572 11.69 43.2652C11.69 41.5912 11.339 40.3222 10.637 39.4582C9.953 38.5762 9.044 38.1352 7.91 38.1352H6.425V48.3952H7.91ZM16.6797 55.9552L18.2997 55.5502V38.2702L16.6797 37.8652V37.4602H23.8347C26.8947 37.4602 29.0997 37.9282 30.4497 38.8642C31.7997 39.7822 32.4747 41.0692 32.4747 42.7252C32.4747 43.8412 32.1777 44.7502 31.5837 45.4522C30.9897 46.1362 30.2247 46.6492 29.2887 46.9912C28.2987 47.3692 27.2457 47.5672 26.1297 47.5852V47.7202C26.7957 47.7562 27.3807 47.8552 27.8847 48.0172C29.1447 48.4132 29.9997 49.1242 30.4497 50.1502L32.8797 55.5502L34.2297 55.9552V56.3602H30.4497C28.9737 56.3602 27.8937 55.5952 27.2097 54.0652L24.5097 47.9902H22.7547V55.5502L24.6447 55.9552V56.3602H16.6797V55.9552ZM23.8347 47.3152C25.0947 47.3152 26.0847 46.9192 26.8047 46.1272C27.5247 45.3352 27.8847 44.2012 27.8847 42.7252C27.8847 41.2492 27.5247 40.1152 26.8047 39.3232C26.0847 38.5312 25.0947 38.1352 23.8347 38.1352H22.7547V47.3152H23.8347ZM42.0713 56.7652C40.3073 56.7652 38.7593 56.3872 37.4273 55.6312C36.1133 54.8572 35.0963 53.7322 34.3763 52.2562C33.6563 50.7802 33.2963 48.9982 33.2963 46.9102C33.2963 44.8222 33.6563 43.0402 34.3763 41.5642C35.0963 40.0882 36.1133 38.9722 37.4273 38.2162C38.7593 37.4422 40.3073 37.0552 42.0713 37.0552C43.8353 37.0552 45.3743 37.4422 46.6883 38.2162C48.0203 38.9722 49.0463 40.0882 49.7663 41.5642C50.4863 43.0402 50.8463 44.8222 50.8463 46.9102C50.8463 48.9982 50.4863 50.7802 49.7663 52.2562C49.0463 53.7322 48.0203 54.8572 46.6883 55.6312C45.3743 56.3872 43.8353 56.7652 42.0713 56.7652ZM42.0713 56.2252C42.7733 56.2252 43.4213 55.9282 44.0153 55.3342C44.6273 54.7402 45.1313 53.7502 45.5273 52.3642C45.9233 50.9782 46.1213 49.1602 46.1213 46.9102C46.1213 44.6602 45.9233 42.8422 45.5273 41.4562C45.1313 40.0702 44.6273 39.0802 44.0153 38.4862C43.4213 37.8922 42.7733 37.5952 42.0713 37.5952C41.3693 37.5952 40.7123 37.8922 40.1003 38.4862C39.5063 39.0802 39.0113 40.0702 38.6153 41.4562C38.2193 42.8422 38.0213 44.6602 38.0213 46.9102C38.0213 49.1602 38.2193 50.9782 38.6153 52.3642C39.0113 53.7502 39.5063 54.7402 40.1003 55.3342C40.7123 55.9282 41.3693 56.2252 42.0713 56.2252ZM54.6453 56.7652C52.9893 56.7652 51.7383 56.4772 50.8923 55.9012C50.0643 55.3252 49.6503 54.6232 49.6503 53.7952C49.6503 53.1832 49.8303 52.6972 50.1903 52.3372C50.5683 51.9592 51.0633 51.7702 51.6753 51.7702C51.8193 51.7702 51.9633 51.7882 52.1073 51.8242C52.2513 51.8422 52.3503 51.8512 52.4043 51.8512L52.7553 51.9052V55.9552C52.8813 56.0272 53.0073 56.0722 53.1333 56.0902C53.4393 56.1802 53.7633 56.2252 54.1053 56.2252C56.2653 56.2252 57.3453 54.4702 57.3453 50.9602V38.2702L55.7253 37.8652V37.4602H63.4203V37.8652L61.8003 38.2702V50.9602C61.8003 52.8322 61.2153 54.2722 60.0453 55.2802C58.8753 56.2702 57.0753 56.7652 54.6453 56.7652ZM63.955 55.9552L65.575 55.5502V38.2702L63.955 37.8652V37.4602H78.4V42.3202H77.59C77.248 42.0502 76.951 41.7082 76.699 41.2942C76.123 40.3222 75.835 39.2692 75.835 38.1352H70.03V46.6402H73.135C73.261 45.9562 73.495 45.3172 73.837 44.7232C73.981 44.4532 74.152 44.1922 74.35 43.9402H75.16V50.0152H74.35C74.152 49.7632 73.981 49.5022 73.837 49.2322C73.495 48.6382 73.261 47.9992 73.135 47.3152H70.03V55.6852H76.375C76.375 54.5512 76.663 53.4982 77.239 52.5262C77.491 52.1122 77.788 51.7702 78.13 51.5002H78.94V56.3602H63.955V55.9552ZM88.2487 56.7652C85.3687 56.7652 83.1187 55.9102 81.4987 54.2002C79.8787 52.4902 79.0687 50.0602 79.0687 46.9102C79.0687 44.8402 79.4197 43.0672 80.1217 41.5912C80.8417 40.0972 81.8407 38.9722 83.1187 38.2162C84.4147 37.4422 85.9087 37.0552 87.6007 37.0552C88.6267 37.0552 89.6617 37.3522 90.7057 37.9462C91.1017 38.1622 91.4977 38.4502 91.8937 38.8102C92.1997 38.3422 92.5147 37.9732 92.8387 37.7032C93.1627 37.4692 93.3427 37.3432 93.3787 37.3252H94.0537V42.4552H92.9737C92.7397 41.5912 92.3887 40.8082 91.9207 40.1062C91.4887 39.4222 90.9487 38.8552 90.3007 38.4052C89.6707 37.9552 88.9417 37.7302 88.1137 37.7302C86.8717 37.7302 85.8367 38.4502 85.0087 39.8902C84.1987 41.3302 83.7937 43.6702 83.7937 46.9102C83.7937 50.2042 84.2347 52.5622 85.1167 53.9842C86.0167 55.3882 87.2407 56.0902 88.7887 56.0902C89.6347 56.0902 90.4357 55.8562 91.1917 55.3882C91.9657 54.9022 92.5867 54.2632 93.0547 53.4712C93.5407 52.6792 93.7837 51.8422 93.7837 50.9602H94.4587C94.4587 51.9862 94.1797 52.9492 93.6217 53.8492C93.0817 54.7312 92.3347 55.4422 91.3807 55.9822C90.4447 56.5042 89.4007 56.7652 88.2487 56.7652ZM97.7219 55.9552L99.3419 55.5502V38.1352H96.2369C96.2369 39.2332 95.9399 40.2862 95.3459 41.2942C95.0939 41.7082 94.8059 42.0502 94.4819 42.3202H93.6719V37.4602H109.467V42.3202H108.657C108.315 42.0502 108.018 41.7082 107.766 41.2942C107.19 40.3222 106.902 39.2692 106.902 38.1352H103.797V55.5502L105.417 55.9552V56.3602H97.7219V55.9552ZM116.211 56.7652C114.933 56.7652 113.736 56.4772 112.62 55.9012C112.116 55.6492 111.693 55.3522 111.351 55.0102C111.099 55.4242 110.784 55.7932 110.406 56.1172C110.082 56.3512 109.902 56.4772 109.866 56.4952H109.191V51.3652H110.271C110.541 52.2472 110.919 53.0392 111.405 53.7412C112.503 55.3072 113.925 56.0902 115.671 56.0902C116.697 56.0902 117.516 55.7842 118.128 55.1722C118.74 54.5602 119.046 53.7412 119.046 52.7152C119.046 52.1212 118.866 51.5902 118.506 51.1222C118.164 50.6542 117.732 50.2402 117.21 49.8802C116.688 49.5202 115.959 49.0702 115.023 48.5302C113.835 47.8642 112.872 47.2612 112.134 46.7212C111.396 46.1812 110.766 45.5062 110.244 44.6962C109.722 43.8682 109.461 42.8962 109.461 41.7802C109.461 40.8982 109.704 40.1062 110.19 39.4042C110.694 38.6842 111.441 38.1172 112.431 37.7032C113.421 37.2712 114.636 37.0552 116.076 37.0552C117.12 37.0552 118.164 37.3522 119.208 37.9462C119.604 38.1622 120 38.4502 120.396 38.8102C120.702 38.3422 121.017 37.9732 121.341 37.7032C121.665 37.4692 121.845 37.3432 121.881 37.3252H122.556V42.4552H121.476C121.242 41.5912 120.891 40.8082 120.423 40.1062C119.991 39.4222 119.451 38.8552 118.803 38.4052C118.173 37.9552 117.444 37.7302 116.616 37.7302C115.914 37.7302 115.311 38.0092 114.807 38.5672C114.303 39.1252 114.051 39.8362 114.051 40.7002C114.051 41.3662 114.24 41.9692 114.618 42.5092C115.014 43.0312 115.491 43.4902 116.049 43.8862C116.625 44.2822 117.399 44.7592 118.371 45.3172C119.505 45.9652 120.423 46.5412 121.125 47.0452C121.827 47.5492 122.421 48.1792 122.907 48.9352C123.393 49.6732 123.636 50.5282 123.636 51.5002C123.636 52.4722 123.357 53.3632 122.799 54.1732C122.241 54.9652 121.404 55.5952 120.288 56.0632C119.172 56.5312 117.813 56.7652 116.211 56.7652Z" fill="#E3B873"/>
</svg>
