<svg width="123" height="14" viewBox="0 0 123 14" fill="none" xmlns="http://www.w3.org/2000/svg">
<path d="M0.9 13.0902L1.98 12.8202V1.30023L0.9 1.03023V0.760229H5.67C7.71 0.760229 9.18 1.07223 10.08 1.69623C10.98 2.30823 11.43 3.16623 11.43 4.27023C11.43 5.01423 11.232 5.62023 10.836 6.08823C10.44 6.54423 9.93 6.88623 9.306 7.11423C8.646 7.36623 7.944 7.49823 7.2 7.51023V7.60023C7.644 7.62423 8.034 7.69023 8.37 7.79823C9.21 8.06223 9.78 8.53623 10.08 9.22023L11.7 12.8202L12.6 13.0902V13.3602H10.08C9.096 13.3602 8.376 12.8502 7.92 11.8302L6.12 7.78023H4.95V12.8202L6.21 13.0902V13.3602H0.9V13.0902ZM5.67 7.33023C6.51 7.33023 7.17 7.06623 7.65 6.53823C8.13 6.01023 8.37 5.25423 8.37 4.27023C8.37 3.28623 8.13 2.53023 7.65 2.00223C7.17 1.47423 6.51 1.21023 5.67 1.21023H4.95V7.33023H5.67ZM13.5035 13.0902L14.5835 12.8202V1.30023L13.5035 1.03023V0.760229H23.1335V4.00023H22.5935C22.3655 3.82023 22.1675 3.59223 21.9995 3.31623C21.6155 2.66823 21.4235 1.96623 21.4235 1.21023H17.5535V6.88023H19.6235C19.7075 6.42423 19.8635 5.99823 20.0915 5.60223C20.1875 5.42223 20.3015 5.24823 20.4335 5.08023H20.9735V9.13023H20.4335C20.3015 8.96223 20.1875 8.78823 20.0915 8.60823C19.8635 8.21223 19.7075 7.78623 19.6235 7.33023H17.5535V12.9102H21.7835C21.7835 12.1542 21.9755 11.4522 22.3595 10.8042C22.5275 10.5282 22.7255 10.3002 22.9535 10.1202H23.4935V13.3602H13.5035V13.0902ZM25.1051 13.0902L26.1851 12.8202V1.30023L25.1051 1.03023V0.760229H30.1451C32.1371 0.760229 33.5651 1.09023 34.4291 1.75023C35.2931 2.39823 35.7251 3.35823 35.7251 4.63023C35.7251 5.90223 35.2931 6.86823 34.4291 7.52823C33.5651 8.17623 32.1371 8.50023 30.1451 8.50023H29.1551V12.8202L30.2351 13.0902V13.3602H25.1051V13.0902ZM30.1451 8.05023C30.9011 8.05023 31.5071 7.76223 31.9631 7.18623C32.4311 6.61023 32.6651 5.75823 32.6651 4.63023C32.6651 3.51423 32.4311 2.66823 31.9631 2.09223C31.5071 1.50423 30.9011 1.21023 30.1451 1.21023H29.1551V8.05023H30.1451ZM34.7259 13.0902L36.1659 12.5502L41.1159 0.580229H41.6559L46.7859 12.8202L47.6859 13.0902V13.3602H45.5259C44.9019 13.3602 44.3919 13.2222 43.9959 12.9462C43.5999 12.6582 43.3059 12.2862 43.1139 11.8302L42.1959 9.67023H37.8939L36.7059 12.5502L38.0559 13.0902V13.3602H34.7259V13.0902ZM38.0739 9.22023H42.0159L40.0359 4.48623L38.0739 9.22023ZM48.2203 13.3602V13.0902L49.3003 12.8202V1.30023L48.2203 1.03023V0.760229H53.3503V1.03023L52.2703 1.30023V12.8202L53.3503 13.0902V13.3602H48.2203ZM54.9703 13.0902L56.0503 12.8202V1.30023L54.9703 1.03023V0.760229H59.7403C61.7803 0.760229 63.2503 1.07223 64.1503 1.69623C65.0503 2.30823 65.5003 3.16623 65.5003 4.27023C65.5003 5.01423 65.3023 5.62023 64.9063 6.08823C64.5103 6.54423 64.0003 6.88623 63.3763 7.11423C62.7163 7.36623 62.0143 7.49823 61.2703 7.51023V7.60023C61.7143 7.62423 62.1043 7.69023 62.4403 7.79823C63.2803 8.06223 63.8503 8.53623 64.1503 9.22023L65.7703 12.8202L66.6703 13.0902V13.3602H64.1503C63.1663 13.3602 62.4463 12.8502 61.9903 11.8302L60.1903 7.78023H59.0203V12.8202L60.2803 13.0902V13.3602H54.9703V13.0902ZM59.7403 7.33023C60.5803 7.33023 61.2403 7.06623 61.7203 6.53823C62.2003 6.01023 62.4403 5.25423 62.4403 4.27023C62.4403 3.28623 62.2003 2.53023 61.7203 2.00223C61.2403 1.47423 60.5803 1.21023 59.7403 1.21023H59.0203V7.33023H59.7403ZM74.8688 13.0902L75.9488 12.8202V1.21023H73.8788C73.8788 1.94223 73.6808 2.64423 73.2848 3.31623C73.1168 3.59223 72.9248 3.82023 72.7088 4.00023H72.1688V0.760229H82.6988V4.00023H82.1588C81.9308 3.82023 81.7328 3.59223 81.5648 3.31623C81.1808 2.66823 80.9888 1.96623 80.9888 1.21023H78.9188V12.8202L79.9988 13.0902V13.3602H74.8688V13.0902ZM84.0445 13.3602V13.0902L85.1245 12.8202V1.30023L84.0445 1.03023V0.760229H89.1745V1.03023L88.0945 1.30023V12.8202L89.1745 13.0902V13.3602H84.0445ZM92.4145 3.01023V12.5502L93.8545 13.0902V13.3602H90.4345V13.0902L91.8745 12.5502V1.30023L90.7945 1.03023V0.760229H93.0445C93.6685 0.760229 94.1605 0.892229 94.5205 1.15623C94.8925 1.40823 95.2105 1.78623 95.4745 2.29023L99.3985 9.79623L102.405 2.29023C102.609 1.76223 102.885 1.37823 103.233 1.13823C103.581 0.886229 104.115 0.760229 104.835 0.760229H106.725V1.03023L105.645 1.30023V12.8202L106.725 13.0902V13.3602H101.595V13.0902L102.675 12.8202V3.01023L98.4445 13.5402H97.9045L92.4145 3.01023ZM108.355 13.0902L109.435 12.8202V1.30023L108.355 1.03023V0.760229H117.985V4.00023H117.445C117.217 3.82023 117.019 3.59223 116.851 3.31623C116.467 2.66823 116.275 1.96623 116.275 1.21023H112.405V6.88023H114.475C114.559 6.42423 114.715 5.99823 114.943 5.60223C115.039 5.42223 115.153 5.24823 115.285 5.08023H115.825V9.13023H115.285C115.153 8.96223 115.039 8.78823 114.943 8.60823C114.715 8.21223 114.559 7.78623 114.475 7.33023H112.405V12.9102H116.635C116.635 12.1542 116.827 11.4522 117.211 10.8042C117.379 10.5282 117.577 10.3002 117.805 10.1202H118.345V13.3602H108.355V13.0902ZM121.217 6.88023C120.857 6.88023 120.539 6.74823 120.263 6.48423C119.999 6.20823 119.867 5.89023 119.867 5.53023C119.867 5.17023 119.999 4.85823 120.263 4.59423C120.539 4.31823 120.857 4.18023 121.217 4.18023C121.577 4.18023 121.889 4.31823 122.153 4.59423C122.429 4.85823 122.567 5.17023 122.567 5.53023C122.567 5.89023 122.429 6.20823 122.153 6.48423C121.889 6.74823 121.577 6.88023 121.217 6.88023ZM121.217 13.5402C120.857 13.5402 120.539 13.4082 120.263 13.1442C119.999 12.8682 119.867 12.5502 119.867 12.1902C119.867 11.8302 119.999 11.5182 120.263 11.2542C120.539 10.9782 120.857 10.8402 121.217 10.8402C121.577 10.8402 121.889 10.9782 122.153 11.2542C122.429 11.5182 122.567 11.8302 122.567 12.1902C122.567 12.5502 122.429 12.8682 122.153 13.1442C121.889 13.4082 121.577 13.5402 121.217 13.5402Z" fill="#E3B873"/>
</svg>
