<svg width="123" height="14" viewBox="0 0 123 14" fill="none" xmlns="http://www.w3.org/2000/svg">
<path d="M0.9 13.0902L1.98 12.8202V1.30023L0.9 1.03023V0.760229H5.67C7.71 0.760229 9.18 1.07223 10.08 1.69623C10.98 2.30823 11.43 3.16623 11.43 4.27023C11.43 5.01423 11.232 5.62023 10.836 6.08823C10.44 6.54423 9.93 6.88623 9.306 7.11423C8.646 7.36623 7.944 7.49823 7.2 7.51023V7.60023C7.644 7.62423 8.034 7.69023 8.37 7.79823C9.21 8.06223 9.78 8.53623 10.08 9.22023L11.7 12.8202L12.6 13.0902V13.3602H10.08C9.096 13.3602 8.376 12.8502 7.92 11.8302L6.12 7.78023H4.95V12.8202L6.21 13.0902V13.3602H0.9V13.0902ZM5.67 7.33023C6.51 7.33023 7.17 7.06623 7.65 6.53823C8.13 6.01023 8.37 5.25423 8.37 4.27023C8.37 3.28623 8.13 2.53023 7.65 2.00223C7.17 1.47423 6.51 1.21023 5.67 1.21023H4.95V7.33023H5.67ZM13.5035 13.0902L14.5835 12.8202V1.30023L13.5035 1.03023V0.760229H23.1335V4.00023H22.5935C22.3655 3.82023 22.1675 3.59223 21.9995 3.31623C21.6155 2.66823 21.4235 1.96623 21.4235 1.21023H17.5535V6.88023H19.6235C19.7075 6.42423 19.8635 5.99823 20.0915 5.60223C20.1875 5.42223 20.3015 5.24823 20.4335 5.08023H20.9735V9.13023H20.4335C20.3015 8.96223 20.1875 8.78823 20.0915 8.60823C19.8635 8.21223 19.7075 7.78623 19.6235 7.33023H17.5535V12.9102H21.7835C21.7835 12.1542 21.9755 11.4522 22.3595 10.8042C22.5275 10.5282 22.7255 10.3002 22.9535 10.1202H23.4935V13.3602H13.5035V13.0902ZM25.1051 13.0902L26.1851 12.8202V1.30023L25.1051 1.03023V0.760229H30.1451C32.1371 0.760229 33.5651 1.09023 34.4291 1.75023C35.2931 2.39823 35.7251 3.35823 35.7251 4.63023C35.7251 5.90223 35.2931 6.86823 34.4291 7.52823C33.5651 8.17623 32.1371 8.50023 30.1451 8.50023H29.1551V12.8202L30.2351 13.0902V13.3602H25.1051V13.0902ZM30.1451 8.05023C30.9011 8.05023 31.5071 7.76223 31.9631 7.18623C32.4311 6.61023 32.6651 5.75823 32.6651 4.63023C32.6651 3.51423 32.4311 2.66823 31.9631 2.09223C31.5071 1.50423 30.9011 1.21023 30.1451 1.21023H29.1551V8.05023H30.1451ZM34.7259 13.0902L36.1659 12.5502L41.1159 0.580229H41.6559L46.7859 12.8202L47.6859 13.0902V13.3602H45.5259C44.9019 13.3602 44.3919 13.2222 43.9959 12.9462C43.5999 12.6582 43.3059 12.2862 43.1139 11.8302L42.1959 9.67023H37.8939L36.7059 12.5502L38.0559 13.0902V13.3602H34.7259V13.0902ZM38.0739 9.22023H42.0159L40.0359 4.48623L38.0739 9.22023ZM48.2203 13.3602V13.0902L49.3003 12.8202V1.30023L48.2203 1.03023V0.760229H53.3503V1.03023L52.2703 1.30023V12.8202L53.3503 13.0902V13.3602H48.2203ZM54.9703 13.0902L56.0503 12.8202V1.30023L54.9703 1.03023V0.760229H59.7403C61.7803 0.760229 63.2503 1.07223 64.1503 1.69623C65.0503 2.30823 65.5003 3.16623 65.5003 4.27023C65.5003 5.01423 65.3023 5.62023 64.9063 6.08823C64.5103 6.54423 64.0003 6.88623 63.3763 7.11423C62.7163 7.36623 62.0143 7.49823 61.2703 7.51023V7.60023C61.7143 7.62423 62.1043 7.69023 62.4403 7.79823C63.2803 8.06223 63.8503 8.53623 64.1503 9.22023L65.7703 12.8202L66.6703 13.0902V13.3602H64.1503C63.1663 13.3602 62.4463 12.8502 61.9903 11.8302L60.1903 7.78023H59.0203V12.8202L60.2803 13.0902V13.3602H54.9703V13.0902ZM59.7403 7.33023C60.5803 7.33023 61.2403 7.06623 61.7203 6.53823C62.2003 6.01023 62.4403 5.25423 62.4403 4.27023C62.4403 3.28623 62.2003 2.53023 61.7203 2.00223C61.2403 1.47423 60.5803 1.21023 59.7403 1.21023H59.0203V7.33023H59.7403ZM78.6488 13.6302C76.7288 13.6302 75.2288 13.0602 74.1488 11.9202C73.0688 10.7802 72.5288 9.16023 72.5288 7.06023C72.5288 5.68023 72.7628 4.49823 73.2308 3.51423C73.7108 2.51823 74.3768 1.76823 75.2288 1.26423C76.0928 0.748229 77.0888 0.490229 78.2168 0.490229C78.9008 0.490229 79.5908 0.688229 80.2868 1.08423C80.5508 1.22823 80.8148 1.42023 81.0788 1.66023C81.2828 1.34823 81.4928 1.10223 81.7088 0.922229C81.9248 0.766229 82.0448 0.682229 82.0688 0.670229H82.5188V4.09023H81.7988C81.6428 3.51423 81.4088 2.99223 81.0968 2.52423C80.8088 2.06823 80.4488 1.69023 80.0168 1.39023C79.5968 1.09023 79.1108 0.940228 78.5588 0.940228C77.7308 0.940228 77.0408 1.42023 76.4888 2.38023C75.9488 3.34023 75.6788 4.90023 75.6788 7.06023C75.6788 9.25623 75.9728 10.8282 76.5608 11.7762C77.1608 12.7122 77.9768 13.1802 79.0088 13.1802C79.5728 13.1802 80.1068 13.0242 80.6108 12.7122C81.1268 12.3882 81.5408 11.9622 81.8528 11.4342C82.1768 10.9062 82.3388 10.3482 82.3388 9.76023H82.7888C82.7888 10.4442 82.6028 11.0862 82.2308 11.6862C81.8708 12.2742 81.3728 12.7482 80.7368 13.1082C80.1128 13.4562 79.4168 13.6302 78.6488 13.6302ZM89.7342 13.6302C88.5582 13.6302 87.5262 13.3782 86.6382 12.8742C85.7622 12.3582 85.0842 11.6082 84.6042 10.6242C84.1242 9.64023 83.8842 8.45223 83.8842 7.06023C83.8842 5.66823 84.1242 4.48023 84.6042 3.49623C85.0842 2.51223 85.7622 1.76823 86.6382 1.26423C87.5262 0.748229 88.5582 0.490229 89.7342 0.490229C90.9102 0.490229 91.9362 0.748229 92.8122 1.26423C93.7002 1.76823 94.3842 2.51223 94.8642 3.49623C95.3442 4.48023 95.5842 5.66823 95.5842 7.06023C95.5842 8.45223 95.3442 9.64023 94.8642 10.6242C94.3842 11.6082 93.7002 12.3582 92.8122 12.8742C91.9362 13.3782 90.9102 13.6302 89.7342 13.6302ZM89.7342 13.2702C90.2022 13.2702 90.6342 13.0722 91.0302 12.6762C91.4382 12.2802 91.7742 11.6202 92.0382 10.6962C92.3022 9.77223 92.4342 8.56023 92.4342 7.06023C92.4342 5.56023 92.3022 4.34823 92.0382 3.42423C91.7742 2.50023 91.4382 1.84023 91.0302 1.44423C90.6342 1.04823 90.2022 0.850229 89.7342 0.850229C89.2662 0.850229 88.8282 1.04823 88.4202 1.44423C88.0242 1.84023 87.6942 2.50023 87.4302 3.42423C87.1662 4.34823 87.0342 5.56023 87.0342 7.06023C87.0342 8.56023 87.1662 9.77223 87.4302 10.6962C87.6942 11.6202 88.0242 12.2802 88.4202 12.6762C88.8282 13.0722 89.2662 13.2702 89.7342 13.2702ZM101.708 13.6302C100.856 13.6302 100.058 13.4382 99.3144 13.0542C98.9784 12.8862 98.6964 12.6882 98.4684 12.4602C98.3004 12.7362 98.0904 12.9822 97.8384 13.1982C97.6224 13.3542 97.5024 13.4382 97.4784 13.4502H97.0284V10.0302H97.7484C97.9284 10.6182 98.1804 11.1462 98.5044 11.6142C99.2364 12.6582 100.184 13.1802 101.348 13.1802C102.032 13.1802 102.578 12.9762 102.986 12.5682C103.394 12.1602 103.598 11.6142 103.598 10.9302C103.598 10.5342 103.478 10.1802 103.238 9.86823C103.01 9.55623 102.722 9.28023 102.374 9.04023C102.026 8.80023 101.54 8.50023 100.916 8.14023C100.124 7.69623 99.4824 7.29423 98.9904 6.93423C98.4984 6.57423 98.0784 6.12423 97.7304 5.58423C97.3824 5.03223 97.2084 4.38423 97.2084 3.64023C97.2084 3.05223 97.3704 2.52423 97.6944 2.05623C98.0304 1.57623 98.5284 1.19823 99.1884 0.922229C99.8484 0.634229 100.658 0.490229 101.618 0.490229C102.314 0.490229 103.01 0.688229 103.706 1.08423C103.97 1.22823 104.234 1.42023 104.498 1.66023C104.702 1.34823 104.912 1.10223 105.128 0.922229C105.344 0.766229 105.464 0.682229 105.488 0.670229H105.938V4.09023H105.218C105.062 3.51423 104.828 2.99223 104.516 2.52423C104.228 2.06823 103.868 1.69023 103.436 1.39023C103.016 1.09023 102.53 0.940228 101.978 0.940228C101.51 0.940228 101.108 1.12623 100.772 1.49823C100.436 1.87023 100.268 2.34423 100.268 2.92023C100.268 3.36423 100.394 3.76623 100.646 4.12623C100.91 4.47423 101.228 4.78023 101.6 5.04423C101.984 5.30823 102.5 5.62623 103.148 5.99823C103.904 6.43023 104.516 6.81423 104.984 7.15023C105.452 7.48623 105.848 7.90623 106.172 8.41023C106.496 8.90223 106.658 9.47223 106.658 10.1202C106.658 10.7682 106.472 11.3622 106.1 11.9022C105.728 12.4302 105.17 12.8502 104.426 13.1622C103.682 13.4742 102.776 13.6302 101.708 13.6302ZM110.254 13.0902L111.334 12.8202V1.21023H109.264C109.264 1.94223 109.066 2.64423 108.67 3.31623C108.502 3.59223 108.31 3.82023 108.094 4.00023H107.554V0.760229H118.084V4.00023H117.544C117.316 3.82023 117.118 3.59223 116.95 3.31623C116.566 2.66823 116.374 1.96623 116.374 1.21023H114.304V12.8202L115.384 13.0902V13.3602H110.254V13.0902ZM120.689 6.88023C120.329 6.88023 120.011 6.74823 119.735 6.48423C119.471 6.20823 119.339 5.89023 119.339 5.53023C119.339 5.17023 119.471 4.85823 119.735 4.59423C120.011 4.31823 120.329 4.18023 120.689 4.18023C121.049 4.18023 121.361 4.31823 121.625 4.59423C121.901 4.85823 122.039 5.17023 122.039 5.53023C122.039 5.89023 121.901 6.20823 121.625 6.48423C121.361 6.74823 121.049 6.88023 120.689 6.88023ZM120.689 13.5402C120.329 13.5402 120.011 13.4082 119.735 13.1442C119.471 12.8682 119.339 12.5502 119.339 12.1902C119.339 11.8302 119.471 11.5182 119.735 11.2542C120.011 10.9782 120.329 10.8402 120.689 10.8402C121.049 10.8402 121.361 10.9782 121.625 11.2542C121.901 11.5182 122.039 11.8302 122.039 12.1902C122.039 12.5502 121.901 12.8682 121.625 13.1442C121.361 13.4082 121.049 13.5402 120.689 13.5402Z" fill="#E3B873"/>
</svg>
